<svg width="17" height="14" viewBox="0 0 17 14" fill="none" xmlns="http://www.w3.org/2000/svg">
<path fill-rule="evenodd" clip-rule="evenodd" d="M9.66417 13.7293C9.26567 13.3079 9.33741 12.6703 9.84353 12.1352L13.8083 8.01771L1.04516 8.01776C0.418061 8.01776 5.43623e-07 7.61703 5.94817e-07 7.01594C5.26802e-07 6.41485 0.418062 6.01412 1.04516 6.01412L13.8373 6.01406L9.84495 1.86625C9.33799 1.32998 9.26553 0.691603 9.66379 0.270309C10.0621 -0.150983 10.6655 -0.0743313 11.1725 0.461938L16.5163 6.01383C16.6201 6.12356 16.7056 6.23755 16.7726 6.35309C16.9182 6.52324 17 6.74995 17 7.01588C17 7.31737 16.8948 7.56846 16.7109 7.74386C16.6534 7.83067 16.5853 7.9162 16.5067 7.99926L11.1719 13.5396C10.6658 14.0747 10.0627 14.1506 9.66417 13.7293Z" fill="#FF4026"/>
</svg>
